<svg width="24px" height="24px" viewBox="-3195 -3703 24 24" version="1.1" xmlns="http://www.w3.org/2000/svg" xmlns:xlink="http://www.w3.org/1999/xlink">
    <g stroke="none" stroke-width="1" fill="none" fill-rule="evenodd" transform="translate(-3194.000000, -3692.000000)">
        <path d="M12.0543874,8.84786092 C16.7188107,8.84786092 20.5000728,7.08703806 20.5000728,4.91495298 C20.5000728,2.74286791 16.7188107,0.982045042 12.0543874,0.982045042 C7.38996415,0.982045042 3.60870199,2.74286791 3.60870199,4.91495298 C3.60870199,7.08703806 7.38996415,8.84786092 12.0543874,8.84786092 Z M11.7850466,11.0592528 C17.1891786,11.0592528 21.5700932,8.58355477 21.5700932,5.52962642 C21.5700932,2.47569808 17.1891786,0 11.7850466,0 C6.38091459,0 2,2.47569808 2,5.52962642 C2,8.58355477 6.38091459,11.0592528 11.7850466,11.0592528 Z" fill="#000000"></path>
        <ellipse stroke="#FFFFFF" stroke-width="1.4" fill="#000000" cx="15.9394612" cy="9.58434489" rx="2.93946123" ry="2.58434489"></ellipse>
        <path d="M2.5,8.18444824 C3.88071187,8.18444824 5,7.2477276 5,6.09222412 C5,4.93672065 3.88071187,4 2.5,4 C1.11928813,4 0,4.93672065 0,6.09222412 C0,7.2477276 1.11928813,8.18444824 2.5,8.18444824 Z" stroke="#FFFFFF" stroke-width="1.3" fill="#000000"></path>
        <path d="M19.375,4.65244141 C20.6866763,4.65244141 21.75,3.75701091 21.75,2.65244141 C21.75,1.54787191 20.6866763,0.652441406 19.375,0.652441406 C18.0633237,0.652441406 17,1.54787191 17,2.65244141 C17,3.75701091 18.0633237,4.65244141 19.375,4.65244141 Z" stroke="#FFFFFF" fill="#000000"></path>
    </g>
    <path d="M-3181.5562,-3703 C-3184.56299,-3703 -3187,-3700.25757 -3187,-3696.87395 C-3187,-3693.49032 -3183.97506,-3688.70587 -3181.5562,-3687.34453 C-3179.13613,-3688.70587 -3176.1124,-3693.49032 -3176.1124,-3696.87395 C-3176.1124,-3700.25757 -3178.54941,-3703 -3181.5562,-3703 L-3181.5562,-3703 Z M-3181.5562,-3694.49159 C-3183.05869,-3694.49159 -3184.2781,-3695.86247 -3184.2781,-3697.55462 C-3184.2781,-3699.24541 -3183.05869,-3700.61765 -3181.5562,-3700.61765 C-3180.05311,-3700.61765 -3178.8343,-3699.24541 -3178.8343,-3697.55462 C-3178.8343,-3695.86247 -3180.05311,-3694.49159 -3181.5562,-3694.49159 L-3181.5562,-3694.49159 Z" stroke="none" fill="#000000" fill-rule="evenodd"></path>
</svg>
